<?xml version="1.0" encoding="utf-8"?>
<svg xmlns="http://www.w3.org/2000/svg">
  <defs>
    <!-- icons go here -->
    <symbol id="icon-nextflow" viewBox="0 0 15 15">
        <path d="M2 4.02752C3.7358 4.1428 5.12664 5.53716 5.23576 7.27472H7.26284C7.1502 4.41648 4.85692 2.1188 2 2V4.02752Z" fill="#0DC09D"/>
        <path d="M5.2472 7.73718C5.13192 9.47298 3.73756 10.8638 2 10.9729V13C4.85824 12.8874 7.15592 10.5941 7.27472 7.73718H5.2472Z" fill="#0DC09D"/>
        <path d="M9.7528 7.26284C9.86808 5.52704 11.2624 4.1362 13 4.02708V2C10.1418 2.11264 7.84408 4.40592 7.72528 7.26284H9.7528Z" fill="#0DC09D"/>
        <path d="M13 10.9725C11.2642 10.8573 9.87335 9.4629 9.76423 7.72534H7.73715C7.84979 10.5836 10.1431 12.8813 13 13.0001V10.9725Z" fill="#0DC09D"/>
    </symbol>

    <symbol id="icon-wave" viewBox="0 0 15 15" fill="none">    
        <g clip-path="url(#clip0_1_2876)">
        <path d="M2.78687 7.17656C2.94086 4.80957 4.80345 2.91298 7.1245 2.76418V0C3.30644 0.153599 0.237185 3.28078 0.0784912 7.17656H2.78687Z" fill="#201637"/>
        <path d="M2.78687 15C2.94086 12.6331 4.80345 10.7365 7.1245 10.5877V7.82349C3.30644 7.97709 0.237185 11.1043 0.0784912 15H2.78687Z" fill="#201637"/>
        <path d="M12.064 0.00012207C11.91 2.36711 10.0474 4.2637 7.72635 4.4125V7.17668C11.5444 7.02308 14.6137 3.8959 14.7724 0.00012207L12.064 0.00012207Z" fill="#201637"/>
        <path d="M12.064 7.82349C11.91 10.1905 10.0474 12.0871 7.72635 12.2359V15C11.5444 14.8464 14.6137 11.7193 14.7724 7.82349H12.064Z" fill="#201637"/>
        </g>
        <defs>
        <clipPath id="clip0_1_2876">
        <rect width="15" height="15" fill="white"/>
        </clipPath>
        </defs>
    </symbol>

    <symbol id="icon-fusion" viewBox="0 0 15 15" fill="none">
        <g clip-path="url(#clip0_1_2916)">
        <path d="M7.1766 12.2353C4.8096 12.0781 2.913 10.1767 2.7642 7.80725H0C0.1536 11.7049 3.2808 14.8381 7.1766 15.0001V12.2353Z" fill="#201637"/>
        <path d="M2.7648 7.1766C2.922 4.8096 4.8234 2.913 7.1928 2.7642V0C3.2952 0.1536 0.162 3.2808 0 7.1766H2.7648Z" fill="#201637"/>
        <path d="M12.2352 7.82336C12.078 10.1904 10.1766 12.087 7.80719 12.2358V15C11.7048 14.8464 14.838 11.7192 15 7.82336H12.2352Z" fill="#201637"/>
        <path d="M7.82339 2.7648C10.1904 2.922 12.087 4.8234 12.2358 7.1928H15C14.8464 3.2952 11.7192 0.162 7.82339 0V2.7648Z" fill="#201637"/>
        </g>
        <defs>
        <clipPath id="clip0_1_2916">
        <rect width="15" height="15" fill="white"/>
        </clipPath>
        </defs>
    </symbol>

    <symbol id="icon-nf-core" viewBox="0 0 9 15" fill="none">
        <path d="M8.9868 6.66418C8.9868 6.74054 8.9868 6.82384 8.9868 6.9002C8.9802 6.9002 8.9802 6.9002 8.9736 6.90715C8.934 6.87244 8.89441 6.84467 8.86141 6.80996C8.61063 6.58782 8.34006 6.38651 8.04309 6.23379C7.9903 6.20602 7.9441 6.17825 7.8847 6.16437C7.8781 6.15743 7.87151 6.15049 7.86491 6.15049C7.75272 6.10189 7.64053 6.06024 7.52174 6.03247C7.26436 5.97 7.00699 5.96306 6.74961 6.01859C6.41964 6.08801 6.12267 6.24073 5.84549 6.4351C5.56832 6.62947 5.32415 6.85855 5.09317 7.10846C5.05357 7.15011 5.05357 7.15011 5.02717 7.09458C4.90179 6.82384 4.7698 6.56005 4.59822 6.31709C4.46623 6.12966 4.32104 5.96306 4.13626 5.8381C3.94488 5.71315 3.7403 5.6715 3.52252 5.72703C3.25194 5.79645 3.03416 5.96306 2.82958 6.15049C2.7042 6.25461 2.592 6.36568 2.47981 6.47675C2.37422 6.57394 2.27523 6.67807 2.16304 6.77525C2.14325 6.79608 2.13005 6.78913 2.11685 6.77525C2.01126 6.65724 1.89907 6.55311 1.76708 6.47675C1.5757 6.36568 1.37112 6.3518 1.16654 6.42816C0.994956 6.49064 0.836571 6.58782 0.684786 6.68501C0.625391 6.72666 0.565994 6.76831 0.5 6.80302C0.5 6.79608 0.5 6.78913 0.5 6.78913C0.506599 6.77525 0.506602 6.76137 0.506602 6.75443C0.513201 6.46287 0.539599 6.17131 0.585795 5.87975C0.645189 5.48407 0.737578 5.09533 0.909162 4.72741C1.03455 4.45668 1.19954 4.21371 1.41731 4.00546C1.70109 3.73473 2.03106 3.56812 2.39402 3.45705C2.78339 3.33904 3.18595 3.29045 3.59511 3.26962C3.75349 3.26268 3.91848 3.25574 4.07686 3.2488C4.15606 3.28351 4.23525 3.30433 4.32104 3.3321C4.43983 3.36681 4.55862 3.40846 4.67081 3.44317C4.7302 3.46399 4.7896 3.49176 4.84899 3.51259C5.07997 3.60283 5.30435 3.7139 5.50233 3.87356C5.55513 3.91521 5.60132 3.95686 5.65412 4.00546C5.64092 3.96381 5.62772 3.9291 5.61452 3.89439C5.52872 3.65142 5.39674 3.45011 5.18556 3.31822C5.09977 3.26268 5.00078 3.21409 4.91498 3.1655C4.92158 3.1655 4.93478 3.1655 4.94138 3.15855C5.22516 3.10996 5.50893 3.08219 5.7927 3.06831C6.03688 3.06137 6.28765 3.06137 6.53183 3.08913C6.8156 3.12384 7.09938 3.17938 7.36995 3.28351C7.77252 3.43623 8.11568 3.68613 8.37966 4.04017C8.61063 4.35255 8.75582 4.70658 8.85481 5.08144C8.9472 5.4563 8.9868 5.84504 9 6.22685C8.9868 6.37262 8.9868 6.5184 8.9868 6.66418Z" fill="#24AF63"/>
        <path d="M8.98679 6.22681H8.99338C8.99338 6.37259 8.99338 6.51836 8.99338 6.66414H8.98679C8.98679 6.51836 8.98679 6.37259 8.98679 6.22681Z" fill="#ECDC86"/>
        <path d="M6.71001 0V0.00694173C6.61761 0.00694173 6.52522 0.00694173 6.43283 0.00694173C6.43283 0.00694173 6.43283 0.00694184 6.43283 0C6.52522 0 6.61761 0 6.71001 0Z" fill="#A0918F"/>
        <path d="M6.89479 12.3703C7.05317 12.3009 7.20496 12.2245 7.35014 12.1343C7.52173 12.0232 7.68671 11.9052 7.85169 11.7802C7.99028 11.6692 8.12227 11.5581 8.24766 11.447C8.32025 11.3776 8.39944 11.3151 8.47204 11.2457C8.48524 11.2318 8.48524 11.2388 8.49184 11.2527C8.51823 11.3637 8.53803 11.4679 8.55783 11.5789C8.58423 11.7247 8.61062 11.8774 8.62382 12.0302C8.64362 12.2037 8.65022 12.3772 8.63702 12.5577C8.62382 12.7729 8.58422 12.9881 8.51823 13.1964C8.47203 13.3213 8.41924 13.4393 8.35325 13.5504C8.26745 13.6962 8.16187 13.8211 8.04308 13.9392C7.89789 14.078 7.73951 14.196 7.56792 14.2932C7.33694 14.432 7.08617 14.5292 6.83539 14.6125C6.59121 14.6889 6.34704 14.7444 6.09626 14.793C6.03027 14.8069 5.95767 14.8208 5.89168 14.8138C5.74649 14.8069 5.60791 14.7722 5.46932 14.7166C5.26474 14.6333 5.07996 14.5014 4.88198 14.4043C4.76979 14.3487 4.6576 14.314 4.53881 14.3001C4.38042 14.2863 4.24844 14.3487 4.13625 14.4598C4.05046 14.5431 3.97126 14.6333 3.89207 14.7166C3.75348 14.8624 3.5885 14.9596 3.39712 14.9874C3.27173 15.0082 3.13974 15.0013 3.01435 14.9804C2.83617 14.9527 2.65799 14.911 2.4864 14.8555C2.23563 14.7722 2.00465 14.6472 1.79347 14.4806C1.59549 14.321 1.4371 14.1266 1.30511 13.8975C1.17972 13.6684 1.09393 13.4255 1.04114 13.1686C1.01474 13.0575 1.00154 12.9395 0.994941 12.8285C0.981743 12.6688 0.968545 12.5091 0.975144 12.3425C0.981743 12.1135 0.994941 11.8913 1.02794 11.6553C1.05434 11.6761 1.07414 11.7039 1.10053 11.7247C1.23912 11.8566 1.3909 11.9746 1.55589 12.0787C1.74067 12.1898 1.93205 12.2801 2.14323 12.3356C2.28182 12.3772 2.42701 12.3981 2.57219 12.412C2.69098 12.4189 2.80977 12.4258 2.92856 12.4189C3.06715 12.412 3.20573 12.3981 3.34432 12.3634C3.36412 12.3634 3.37732 12.3634 3.39712 12.3564C3.5225 12.3287 3.64789 12.3009 3.76668 12.2592C3.90527 12.2176 4.05046 12.169 4.18244 12.1135C4.31443 12.0579 4.44642 12.0024 4.57841 11.9469C4.618 11.926 4.6378 11.9399 4.67079 11.9607C4.88857 12.1412 5.12615 12.2939 5.38353 12.3981C5.6673 12.5161 5.96427 12.5716 6.26784 12.5438C6.47902 12.5091 6.6902 12.4536 6.89479 12.3703Z" fill="#24AF63"/>
        <path d="M6.8948 12.3704C6.69022 12.4537 6.47904 12.5162 6.25466 12.537C5.94449 12.5648 5.65412 12.5092 5.37035 12.3912C5.11297 12.2871 4.87539 12.1344 4.65761 11.9539C4.62462 11.9261 4.60482 11.9192 4.56523 11.94C4.43324 12.0025 4.30125 12.058 4.16926 12.1066C4.03068 12.1621 3.89209 12.2107 3.7535 12.2524C3.62811 12.2871 3.50932 12.3218 3.38394 12.3496C3.36414 12.3565 3.35094 12.3565 3.33114 12.3565C3.37734 12.301 3.41693 12.2524 3.46313 12.1968C3.64131 11.9816 3.7601 11.7387 3.83269 11.4679C3.93168 11.1 4.03728 10.7252 4.11647 10.3503C4.17586 10.0726 4.22866 9.79496 4.26825 9.51729C4.29465 9.31598 4.30785 9.11466 4.32105 8.91335C4.33425 8.72592 4.32765 8.53849 4.31445 8.358C4.28145 7.79572 4.16266 7.25425 3.94488 6.74056C3.81289 6.43512 3.59511 6.21992 3.27174 6.13662C3.13316 6.10191 3.00117 6.10885 2.86259 6.15744C2.84939 6.16438 2.84279 6.16438 2.82959 6.16438C3.03417 5.97695 3.25195 5.81035 3.52252 5.74093C3.7403 5.6854 3.94488 5.72705 4.13627 5.852C4.32765 5.97695 4.47283 6.14356 4.59822 6.33099C4.76981 6.57395 4.90179 6.83774 5.02718 7.10847C5.05358 7.16401 5.05358 7.16401 5.09318 7.12236C5.32415 6.87245 5.57493 6.64337 5.8455 6.449C6.12268 6.25463 6.41965 6.10191 6.74962 6.03249C7.00699 5.97695 7.26437 5.9839 7.52174 6.04637C7.64053 6.07414 7.75272 6.11579 7.86491 6.16438C7.87151 6.17133 7.88471 6.17133 7.88471 6.17827C7.55474 6.18521 7.27097 6.3171 7.01359 6.51842C6.8882 6.6156 6.77602 6.72667 6.69023 6.86551C6.61763 6.97658 6.56483 7.10153 6.50544 7.22648C6.39325 7.47639 6.30086 7.73324 6.23487 8.00397C6.17547 8.23305 6.14247 8.46907 6.12268 8.7051C6.10948 8.88558 6.10288 9.07301 6.10948 9.2535C6.11608 9.47564 6.13588 9.70472 6.16227 9.92686C6.20847 10.3017 6.27446 10.6766 6.32726 11.0445C6.36026 11.2527 6.38665 11.461 6.41965 11.6623C6.46584 11.9608 6.62423 12.1899 6.85521 12.3634C6.87501 12.3565 6.88161 12.3634 6.8948 12.3704Z" fill="#ECDC86"/>
        <path d="M6.43284 0.00695801C6.52523 0.00695801 6.61762 0.00695801 6.71001 0.00695801C6.93439 0.0208417 7.15877 0.0555509 7.37655 0.131911C7.54153 0.194388 7.58113 0.305457 7.48214 0.458177C7.40955 0.569247 7.31056 0.645607 7.21156 0.715025C7.07958 0.812211 6.93439 0.888571 6.78261 0.944106C6.62422 1.00658 6.47244 0.944106 6.38004 0.777502C6.34705 0.728909 6.32725 0.673374 6.31405 0.610898C6.30745 0.590072 6.30085 0.583131 6.28765 0.583131C5.93789 0.520654 5.62772 0.603956 5.37034 0.867746C5.15916 1.08294 5.03377 1.34673 4.94798 1.63829C4.86879 1.90208 4.82919 2.16587 4.81599 2.4366C4.80279 2.67957 4.82259 2.92253 4.85559 3.15855C4.86219 3.2002 4.87539 3.24185 4.87539 3.28351C4.88199 3.3321 4.86879 3.38069 4.82259 3.40846C4.77639 3.44317 4.7302 3.43623 4.67741 3.43623C4.55862 3.40152 4.43983 3.35987 4.32764 3.32516C4.32764 3.29739 4.32764 3.26962 4.32764 3.23491C4.32764 3.10996 4.32764 2.97806 4.33424 2.85311C4.36064 2.34636 4.43323 1.84654 4.61801 1.3745C4.7566 1.02047 4.95458 0.715025 5.23175 0.472061C5.46273 0.270748 5.72671 0.138853 6.01708 0.0694346C6.14907 0.0347255 6.28765 0.0138998 6.43284 0.00695801Z" fill="#3F2B29"/>
        <path d="M4.66422 3.44319C4.71701 3.44319 4.76321 3.45013 4.8094 3.41542C4.849 3.38071 4.8688 3.33906 4.8622 3.29046C4.8556 3.24881 4.849 3.20716 4.8424 3.16551C4.8622 3.16551 4.88859 3.15857 4.90839 3.15857C5.00078 3.2141 5.09317 3.25576 5.17897 3.31129C5.39015 3.45013 5.52213 3.65144 5.60792 3.88746C5.62112 3.92217 5.63432 3.96382 5.64752 3.99853C5.59472 3.95688 5.54853 3.90829 5.49573 3.86664C5.29775 3.70697 5.07998 3.59591 4.8424 3.50566C4.783 3.49178 4.72361 3.46401 4.66422 3.44319Z" fill="#396E35"/>
        <path d="M4.30784 3.24182C4.30784 3.26959 4.30784 3.29736 4.30784 3.33206C4.22864 3.3043 4.14285 3.28347 4.06366 3.24876C4.14945 3.24876 4.22864 3.24182 4.30784 3.24182Z" fill="#396E35"/>
    </symbol>

    <symbol id="icon-multiqc" viewBox="0 0 15 15" fill="none">
        <path d="M2.7648 7.1766C2.922 4.8096 4.8234 2.913 7.1928 2.7642V0C3.2952 0.1536 0.162 3.2808 0 7.1766H2.7648Z" fill="#201637"/>
        <path d="M7.1766 12.2353C4.8096 12.0781 2.913 10.1767 2.7642 7.80725H0C0.1536 11.7049 3.2808 14.8381 7.1766 15.0001V12.2353Z" fill="#201637"/>
        <path d="M7.82339 2.7648C10.1904 2.922 12.087 4.8234 12.2358 7.1928H15C14.8464 3.2952 11.7192 0.162 7.82339 0V2.7648Z" fill="#201637"/>
        <path d="M15 12.2353C12.633 12.0781 10.7364 10.1767 10.5876 7.80725H7.82339C7.97699 11.7049 11.1042 14.8381 15 15.0001V12.2353Z" fill="#201637"/>
    </symbol>

    <symbol id="icon-seqera" viewBox="0 0 15 15" fill="none">

        <path d="M12.7342 7.76576L12.7552 7.77416L12.7762 7.78256L12.7961 7.79216L12.8159 7.80295L12.8351 7.81375L12.8543 7.82575L12.8723 7.83955L12.8897 7.85275L12.9059 7.86775L12.9227 7.88275L12.9383 7.89955L12.9527 7.91575L12.9671 7.93374L12.9797 7.95174L12.9923 7.97094L13.0031 7.98954L13.0133 8.00994L13.0229 8.02974L13.0313 8.05013L13.0397 8.07113L13.0457 8.09273L13.0517 8.11373L13.0559 8.13653L13.0601 8.15813L13.0625 8.18092L13.0637 8.20252L13.0644 8.22472L13.0637 8.24752L13.0625 8.26972L13.0601 8.29192L13.0559 8.31411L13.0517 8.33571L13.0457 8.35791L13.0397 8.37891L13.0313 8.40051L13.0229 8.42091L13.0133 8.4407L13.0031 8.4605L12.9923 8.4797L12.9797 8.4989L12.9671 8.5169L12.9527 8.5337L12.9383 8.5511L12.9227 8.56669L12.9059 8.58289L12.8897 8.59789L12.8723 8.61109L12.8543 8.62369L12.8351 8.63689L12.8159 8.64769L12.7961 8.65849L12.7762 8.66749L12.7552 8.67648L12.7342 8.68368L12.7132 8.69088L12.6916 8.69568L12.67 8.70108L12.6472 8.70408L12.6256 8.70648L12.6028 8.70888H12.5992L12.622 8.70828L12.6628 8.70648L12.7036 8.70408L12.7444 8.70048L12.7846 8.69508L12.8255 8.68908L12.8657 8.68248L12.9059 8.67409L12.9455 8.66509L12.9857 8.65489L13.0253 8.64349L13.0644 8.63089L13.1028 8.61769L13.1412 8.60329L13.179 8.58769L13.2168 8.57149L13.254 8.5541L13.2906 8.5355L13.3266 8.5163L13.3621 8.4959L13.3969 8.4743L13.4317 8.4527L13.4653 8.4299L13.4989 8.40531L13.5313 8.38011L13.5631 8.35491L13.5943 8.32791L13.625 8.30032L13.6544 8.27272L13.6838 8.24332L13.712 8.21392L13.739 8.18332L13.7654 8.15213L13.7912 8.12033L13.8164 8.08733L13.8404 8.05433L13.8632 8.02074L13.886 7.98594L13.9071 7.95114L13.9275 7.91515L13.9473 7.87915L13.9653 7.84315L13.9827 7.80595L13.9989 7.76816L14.0145 7.73036L14.0289 7.69196L14.0427 7.65297L14.0547 7.61397L14.0661 7.57437L14.0763 7.53478L14.0853 7.49518L14.0937 7.45438L14.1009 7.41419L14.1069 7.37399L14.1111 7.33319L14.1153 7.2924L14.1183 7.251L14.1195 7.2102L14.1201 7.16941L14.1195 7.12861L14.1183 7.08721L14.1153 7.04642L14.1111 7.00562L14.1069 6.96542L14.1009 6.92463L14.0937 6.88383L14.0853 6.84423L14.0763 6.80404L14.0685 6.77344H12.6094L12.5806 6.77404H9.12933L12.709 7.75856L12.7342 7.76576Z" fill="#201637"/>
        <path d="M14.9976 8.12273L14.9946 8.07113L14.991 8.02014L14.9862 7.96854L14.9802 7.91755L14.9736 7.86715L14.9652 7.81615L14.9556 7.76576L14.946 7.71536L14.9346 7.66557L14.922 7.61577L14.9088 7.56597L14.8938 7.51678L14.8782 7.46818L14.8619 7.41899L14.8439 7.37099L14.8253 7.32359L14.8055 7.2756L14.7851 7.2288L14.7635 7.182L14.7413 7.13581L14.7173 7.09081L14.6927 7.04522L14.6669 7.00082L14.6405 6.95642L14.6135 6.91323L14.5847 6.87003L14.5558 6.82803L14.5258 6.78664L14.5156 6.77344H14.0685L14.0763 6.80404L14.0853 6.84423L14.0937 6.88383L14.1009 6.92463L14.1069 6.96542L14.1111 7.00562L14.1153 7.04642L14.1183 7.08721L14.1195 7.12861L14.1201 7.16941L14.1195 7.2102L14.1183 7.251L14.1153 7.2924L14.1111 7.33319L14.1069 7.37399L14.1009 7.41419L14.0937 7.45438L14.0853 7.49518L14.0763 7.53478L14.0661 7.57437L14.0547 7.61397L14.0427 7.65297L14.0288 7.69196L14.0144 7.73036L13.9988 7.76816L13.9826 7.80595L13.9652 7.84315L13.9472 7.87915L13.9274 7.91515L13.907 7.95114L13.886 7.98594L13.8632 8.02074L13.8404 8.05434L13.8164 8.08733L13.7912 8.12033L13.7654 8.15213L13.7389 8.18332L13.7119 8.21392L13.6837 8.24332L13.6543 8.27272L13.6249 8.30032L13.5943 8.32791L13.5631 8.35491L13.5313 8.38011L13.4989 8.40531L13.4652 8.4299L13.4316 8.4527L13.3968 8.4743L13.362 8.4959L13.3266 8.5163L13.2906 8.5355L13.254 8.5541L13.2168 8.57149L13.1789 8.58769L13.1411 8.60329L13.1027 8.61769L13.0643 8.63089L13.0253 8.64349L12.9857 8.65489L12.9455 8.66509L12.9058 8.67409L12.8656 8.68248L12.8254 8.68908L12.7846 8.69508L12.7444 8.70048L12.7036 8.70408L12.6628 8.70648L12.6219 8.70828L12.5805 8.70888H0V10.6443H12.5805L12.6321 10.6437L12.6832 10.6425L12.7348 10.6395L12.7858 10.6353L12.8368 10.6305L12.8878 10.6251L12.9389 10.6173L12.9893 10.6095L13.0397 10.6005L13.0901 10.5897L13.1405 10.5783L13.1897 10.5663L13.2396 10.5525L13.2894 10.5381L13.338 10.5231L13.3866 10.5057L13.4346 10.4883L13.4827 10.4697L13.5301 10.4505L13.5769 10.4301L13.6237 10.4079L13.6699 10.3851L13.7155 10.3618L13.7606 10.3372L13.805 10.312L13.8494 10.285L13.892 10.258L13.9352 10.2298L13.9778 10.2004L14.0192 10.1704L14.0601 10.1392L14.1003 10.1074L14.1405 10.0744L14.1795 10.0408L14.2173 10.0072L14.2545 9.97178L14.2911 9.93578L14.3272 9.89919L14.362 9.86139L14.3968 9.82359L14.4304 9.7846L14.4628 9.745L14.4946 9.7048L14.5258 9.66341L14.5558 9.62201L14.5847 9.58001L14.6135 9.53682L14.6405 9.49362L14.6669 9.44922L14.6927 9.40483L14.7173 9.35983L14.7413 9.31423L14.7635 9.26804L14.7851 9.22184L14.8055 9.17445L14.8253 9.12705L14.8439 9.07965L14.8619 9.03106L14.8782 8.98246L14.8938 8.93386L14.9088 8.88407L14.922 8.83487L14.9346 8.78508L14.946 8.73468L14.9556 8.68488L14.9652 8.63449L14.9736 8.58349L14.9802 8.5325L14.9862 8.4815L14.991 8.43051L14.9946 8.37891L14.9976 8.32791L14.9994 8.27692L15 8.22532L14.9994 8.17373L14.9976 8.12273Z" fill="#0DC09D"/>
        <path d="M2.26587 7.23256L2.24487 7.22476L2.22386 7.21637L2.20405 7.20677L2.18364 7.19597L2.16504 7.18457L2.14583 7.17257L2.12782 7.15937L2.11042 7.14557L2.09361 7.13057L2.07741 7.11557L2.0618 7.09937L2.04739 7.08258L2.03299 7.06458L2.02038 7.04658L2.00778 7.02798L1.99698 7.00938L1.98677 6.98898L1.97657 6.96859L1.96877 6.94879L1.96036 6.92779L1.95436 6.90559L1.94836 6.88459L1.94356 6.86239L1.93996 6.84079L1.93756 6.818L1.93635 6.7964L1.93575 6.7736L1.93635 6.7514L1.93756 6.7286L1.93996 6.70701L1.94356 6.68481L1.94836 6.66261L1.95436 6.64101L1.96036 6.62001L1.96877 6.59841L1.97657 6.57802L1.98677 6.55762L1.99698 6.53842L2.00778 6.51862L2.02038 6.50002L2.03299 6.48202L2.04739 6.46463L2.0618 6.44783L2.07741 6.43163L2.09361 6.41603L2.11042 6.40103L2.12782 6.38783L2.14583 6.37463L2.16504 6.36203L2.18364 6.35063L2.20405 6.34044L2.22386 6.33144L2.24487 6.32244L2.26587 6.31464L2.28688 6.30804L2.30849 6.30264L2.3301 6.29784L2.3529 6.29484L2.37451 6.29244L2.39672 6.29004H2.40092H2.37811L2.3373 6.29184L2.29648 6.29484L2.25567 6.29844L2.21546 6.30324L2.17464 6.30924L2.13383 6.31644L2.09421 6.32424L2.054 6.33384L2.01438 6.34403L1.97477 6.35543L1.93575 6.36803L1.89734 6.38123L1.85833 6.39503L1.82111 6.41063L1.7833 6.42743L1.74609 6.44483L1.70947 6.46343L1.67286 6.48262L1.63805 6.50242L1.60323 6.52402L1.56842 6.54622L1.53421 6.56902L1.5012 6.59362L1.46819 6.61821L1.43697 6.64401L1.40576 6.67041L1.37515 6.69801L1.34574 6.7262L1.31633 6.755L1.28812 6.785L1.26111 6.815L1.2341 6.84619L1.20889 6.87859L1.18308 6.91099L1.15968 6.94399L1.13627 6.97818L1.11406 7.01238L1.09305 7.04778L1.07264 7.08318L1.05284 7.11977L1.03483 7.15577L1.01742 7.19297L1.00122 7.23076L0.985612 7.26856L0.971207 7.30696L0.957402 7.34595L0.945398 7.38495L0.933994 7.42455L0.92379 7.46355L0.914787 7.50374L0.906384 7.54394L0.899181 7.58474L0.893179 7.62493L0.888978 7.66573L0.884776 7.70593L0.881775 7.74732L0.880575 7.78812L0.879974 7.82892L0.880575 7.87031L0.881775 7.91111L0.884776 7.95191L0.888978 7.9927L0.893179 8.0335L0.899181 8.0743L0.906384 8.11449L0.914787 8.15469L0.92379 8.19429L0.931593 8.22548H2.39072L2.41953 8.22488H5.87077L2.29108 7.24036L2.26587 7.23256Z" fill="#201637"/>
        <path d="M0.00240086 6.87609L0.00480173 6.92769L0.00900324 6.97868L0.013805 7.02968L0.0198071 7.08067L0.0264095 7.13167L0.0348125 7.18207L0.0438158 7.23306L0.0540194 7.28346L0.0654236 7.33325L0.0780281 7.38305L0.0912328 7.43285L0.106238 7.48204L0.121844 7.53064L0.13805 7.57923L0.156056 7.62783L0.174663 7.67523L0.19447 7.72322L0.214877 7.77002L0.236485 7.81681L0.258693 7.86241L0.282702 7.90801L0.307311 7.9536L0.33312 7.998L0.359529 8.0418L0.386539 8.08499L0.414749 8.12819L0.44416 8.17079L0.474171 8.21218L0.484374 8.22538H0.931535L0.923733 8.19419L0.914729 8.15459L0.906326 8.11439L0.899124 8.07419L0.893121 8.0334L0.88892 7.9926L0.884718 7.9518L0.881717 7.91101L0.880517 7.87021L0.879917 7.82881L0.880517 7.78802L0.881717 7.74722L0.884718 7.70582L0.88892 7.66563L0.893121 7.62483L0.899124 7.58463L0.906326 7.54384L0.914729 7.50364L0.923733 7.46344L0.933936 7.42445L0.94534 7.38485L0.957345 7.34585L0.97115 7.30686L0.985555 7.26846L1.00116 7.23066L1.01737 7.19286L1.03477 7.15567L1.05278 7.11967L1.07259 7.08307L1.09299 7.04768L1.114 7.01228L1.13621 6.97808L1.15962 6.94388L1.18303 6.91089L1.20884 6.87849L1.23404 6.84609L1.26105 6.8149L1.28806 6.7849L1.31627 6.7549L1.34568 6.7261L1.37509 6.6979L1.40571 6.67031L1.43692 6.64391L1.46813 6.61811L1.50114 6.59351L1.53415 6.56891L1.56836 6.54612L1.60318 6.52392L1.63799 6.50232L1.6728 6.48252L1.70942 6.46332L1.74603 6.44472L1.78324 6.42733L1.82106 6.41053L1.85827 6.39493L1.89728 6.38113L1.9357 6.36793L1.97471 6.35533L2.01433 6.34393L2.05394 6.33373L2.09415 6.32413L2.13377 6.31634L2.17458 6.30914L2.2154 6.30314L2.25561 6.29834L2.29643 6.29474L2.33724 6.29174L2.37806 6.28994L2.41947 6.28934H15V4.35449H2.41947L2.36785 4.35509L2.31683 4.35629L2.26522 4.35929L2.2142 4.36289L2.16258 4.36769L2.11216 4.37369L2.06114 4.38089L2.01072 4.38869L1.96031 4.39829L1.90929 4.40849L1.85947 4.41989L1.80965 4.43249L1.76043 4.44568L1.71062 4.46068L1.662 4.47568L1.61338 4.49248L1.56536 4.50988L1.51735 4.52908L1.46993 4.54828L1.42311 4.56868L1.3763 4.59087L1.33008 4.61367L1.28446 4.63647L1.23945 4.66167L1.19503 4.68687L1.15061 4.71326L1.1074 4.74086L1.06418 4.76906L1.02217 4.79846L0.980753 4.82845L0.939338 4.85905L0.899724 4.89085L0.859509 4.92385L0.820495 4.95744L0.782682 4.99164L0.745468 5.02704L0.708855 5.06244L0.672842 5.09963L0.637429 5.13743L0.603217 5.17523L0.569605 5.21422L0.537193 5.25382L0.505382 5.29402L0.474171 5.33481L0.44416 5.37681L0.414749 5.41881L0.386539 5.4614L0.359529 5.5052L0.33312 5.5496L0.307311 5.59399L0.282702 5.63839L0.258693 5.68399L0.236485 5.73078L0.214877 5.77698L0.19447 5.82437L0.174663 5.87117L0.156056 5.91917L0.13805 5.96716L0.121844 6.01576L0.106238 6.06496L0.0912328 6.11415L0.0780281 6.16395L0.0654236 6.21374L0.0540194 6.26414L0.0438158 6.31394L0.0348125 6.36433L0.0264095 6.41533L0.0198071 6.46632L0.013805 6.51732L0.00900324 6.56832L0.00480173 6.61931L0.00240086 6.67031L0 6.7219V6.7735V6.82509L0.00240086 6.87609Z" fill="#0DC09D"/>
        <path d="M2.26587 2.87867L2.24487 2.87027L2.22386 2.86127L2.20345 2.85227L2.18424 2.84147L2.16444 2.83068L2.14583 2.81868L2.12782 2.80488L2.10982 2.79168L2.09301 2.77668L2.07681 2.76168L2.0618 2.74488L2.04739 2.72868L2.03299 2.71068L2.01978 2.69269L2.00778 2.67349L1.99638 2.65429L1.98617 2.63449L1.97597 2.61469L1.96817 2.59429L1.96036 2.5727L1.95376 2.5517L1.94836 2.5307L1.94356 2.5079L1.93996 2.4863L1.93695 2.4635L1.93635 2.44131L1.93575 2.41851L1.93635 2.39631L1.93695 2.37471L1.93996 2.35251L1.94356 2.33032L1.94836 2.30872L1.95376 2.28652L1.96036 2.26492L1.96817 2.24392L1.97597 2.22352L1.98617 2.20373L1.99638 2.18333L2.00778 2.16473L2.01978 2.14553L2.03299 2.12753L2.04739 2.11073L2.0618 2.09333L2.07681 2.07654L2.09301 2.06154L2.10982 2.04654L2.12782 2.03334L2.14583 2.02074L2.16444 2.00754L2.18424 1.99674L2.20345 1.98594L2.22386 1.97634L2.24487 1.96794L2.26587 1.96074L2.28688 1.95355L2.30849 1.94755L2.3307 1.94335L2.3523 1.93975L2.37451 1.93735L2.39732 1.93555H2.40452H2.37811L2.3373 1.93735L2.29648 1.94035L2.25567 1.94395L2.21546 1.94935L2.17464 1.95535L2.13383 1.96194L2.09421 1.97034L2.054 1.97934L2.01438 1.98954L1.97477 2.00094L1.93575 2.01354L1.89734 2.02674L1.85833 2.04114L1.82111 2.05614L1.7833 2.07294L1.74609 2.09033L1.70947 2.10893L1.67286 2.12813L1.63805 2.14793L1.60263 2.16953L1.56842 2.19173L1.53421 2.21452L1.5012 2.23912L1.46819 2.26372L1.43637 2.28952L1.40576 2.31652L1.37515 2.34351L1.34514 2.37171L1.31633 2.40051L1.28812 2.43051L1.26111 2.4611L1.2341 2.4923L1.20889 2.5241L1.18308 2.5571L1.15968 2.59009L1.13627 2.62369L1.11406 2.65789L1.09305 2.69329L1.07264 2.72868L1.05284 2.76528L1.03483 2.80128L1.01742 2.83847L1.00122 2.87627L0.985612 2.91407L0.971207 2.95247L0.957402 2.99146L0.945398 3.03046L0.933994 3.07006L0.92379 3.10965L0.914187 3.14925L0.906384 3.18945L0.899181 3.23024L0.893179 3.27044L0.888377 3.31124L0.884776 3.35143L0.881775 3.39283L0.880575 3.43423L0.879974 3.47502L0.880575 3.51582L0.881775 3.55722L0.884776 3.59801L0.888377 3.63881L0.893179 3.67901L0.899181 3.7198L0.906384 3.7606L0.914187 3.8002L0.92379 3.84039L0.933994 3.87999L0.945398 3.91899L0.957402 3.95859L0.971207 3.99698L0.985612 4.03538L1.00122 4.07318L1.01742 4.11097L1.03483 4.14817L1.05284 4.18477L1.06484 4.20577L1.06604 4.20517L1.11646 4.17937L1.16688 4.15477L1.2179 4.13077L1.26951 4.10857L1.32113 4.08577L1.37395 4.06538L1.42617 4.04618L1.47959 4.02638L1.53301 4.00958L1.58703 3.99278L1.64105 3.97718L1.69507 3.96218L1.74969 3.94839L1.80491 3.93639L1.86013 3.92559L1.91475 3.91479L1.97057 3.90579L2.02639 3.89739L2.08221 3.89019L2.13863 3.88419L2.19445 3.87939L2.25087 3.87519L2.30609 3.87279L2.36371 3.87159L2.41953 3.87039H5.87077L2.29048 2.88587L2.26587 2.87867Z" fill="#201637"/>
        <path d="M12.5806 13.0644H12.622L12.6628 13.062L12.7036 13.0596L12.7444 13.056L12.7852 13.0506L12.8261 13.0446L12.8663 13.038L12.9065 13.0296L12.9461 13.0206L12.9863 13.0104L13.0253 12.999L13.0644 12.9864L13.1034 12.9732L13.1418 12.9588L13.179 12.9432L13.2168 12.927L13.254 12.9096L13.2906 12.891L13.3272 12.8718L13.3627 12.8514L13.3975 12.8298L13.4317 12.8076L13.4659 12.7848L13.4995 12.7608L13.5319 12.7356L13.5637 12.7104L13.5949 12.6834L13.625 12.6558L13.655 12.6282L13.6838 12.5988L13.712 12.5694L13.7396 12.5388L13.766 12.5076L13.7918 12.4758L13.817 12.4428L13.8404 12.4098L13.8638 12.3762L13.886 12.3414L13.9071 12.3066L13.9275 12.2707L13.9473 12.2347L13.9659 12.1981L13.9833 12.1615L13.9989 12.1237L14.0151 12.0853L14.0289 12.0475L14.0427 12.0085L14.0553 11.9695L14.0661 11.9299L14.0769 11.8903L14.0859 11.8507L14.0937 11.8099L14.1009 11.7697L14.1069 11.7295L14.1117 11.6881L14.1159 11.6479L14.1183 11.6065L14.1201 11.5657V11.5249V11.4841L14.1183 11.4427L14.1159 11.4019L14.1117 11.3611L14.1069 11.3209L14.1009 11.2801L14.0937 11.2393L14.0859 11.1997L14.0769 11.1595L14.0661 11.1199L14.0553 11.0809L14.0427 11.0413L14.0289 11.0024L14.0151 10.9646L13.9989 10.9268L13.9833 10.889L13.9659 10.8518L13.9473 10.8152L13.9353 10.793L13.9341 10.7936L13.8836 10.8194L13.8332 10.844L13.7822 10.868L13.7306 10.8908L13.6784 10.9124L13.6262 10.9334L13.5739 10.9526L13.5205 10.9718L13.4665 10.9898L13.4131 11.006L13.3597 11.0216L13.3044 11.0366L13.2504 11.0497L13.1952 11.0623L13.14 11.0737L13.0848 11.0839L13.0295 11.0929L12.9737 11.1013L12.9179 11.1085L12.8621 11.1145L12.8057 11.1193L12.7492 11.1229L12.6928 11.1259L12.637 11.1277L12.5806 11.1283H9.12933L12.709 12.1129L12.7342 12.1207L12.7552 12.1285L12.7762 12.1369L12.7961 12.1465L12.8159 12.1573L12.8351 12.1687L12.8543 12.1807L12.8723 12.1939L12.8897 12.2077L12.9059 12.2227L12.9227 12.2377L12.9383 12.2539L12.9527 12.2707L12.9671 12.2886L12.9797 12.3066L12.9923 12.3252L13.0031 12.3438L13.0133 12.3642L13.0229 12.3846L13.0313 12.4044L13.0397 12.4254L13.0457 12.4476L13.0517 12.4686L13.0559 12.4908L13.0601 12.5124L13.0625 12.5352L13.0637 12.5568L13.0644 12.5796L13.0637 12.6018L13.0625 12.6246L13.0601 12.6462L13.0559 12.6684L13.0517 12.6906L13.0457 12.7122L13.0397 12.7332L13.0313 12.7548L13.0229 12.7752L13.0133 12.7956L13.0031 12.8148L12.9923 12.8346L12.9797 12.8532L12.9671 12.8712L12.9527 12.8886L12.9383 12.9054L12.9227 12.9216L12.9059 12.9372L12.8897 12.9522L12.8723 12.9654L12.8543 12.9786L12.8351 12.9912L12.8159 13.0026L12.7961 13.0128L12.7762 13.0218L12.7552 13.0308L12.7342 13.0386L12.7132 13.0452L12.6916 13.0506L12.67 13.0554L12.6472 13.0584L12.6256 13.0608L12.6028 13.0632L12.5806 13.0638" fill="#201637"/>
        <path d="M14.9976 12.4775L14.9952 12.4266L14.9916 12.3756L14.9862 12.324L14.9808 12.273L14.9736 12.2226L14.9652 12.1716L14.9562 12.1212L14.946 12.0708L14.9346 12.0204L14.922 11.9712L14.9088 11.9214L14.8944 11.8716L14.8788 11.8236L14.8619 11.7744L14.8439 11.7264L14.8259 11.679L14.8061 11.631L14.7851 11.5842L14.7641 11.5374L14.7413 11.4912L14.7173 11.4462L14.6933 11.4006L14.6675 11.3562L14.6405 11.3118L14.6135 11.2686L14.5853 11.2254L14.5558 11.1835L14.5258 11.1421L14.4946 11.1007L14.4634 11.0611L14.4304 11.0209L14.3968 10.9825L14.3626 10.9441L14.3272 10.9069L14.2917 10.8697L14.2545 10.8343L14.2173 10.7989L14.1795 10.7647L14.1405 10.7311L14.1009 10.6981L14.0985 10.6963L14.0421 10.7305L13.9922 10.7587L13.9406 10.7869L13.934 10.7905L13.9472 10.8151L13.9658 10.8517L13.9832 10.8889L13.9988 10.9267L14.015 10.9645L14.0288 11.0023L14.0427 11.0413L14.0553 11.0809L14.0661 11.1199L14.0769 11.1595L14.0859 11.1996L14.0937 11.2392L14.1009 11.28L14.1069 11.3208L14.1117 11.361L14.1159 11.4018L14.1183 11.4426L14.1201 11.484V11.5248V11.5656L14.1183 11.6064L14.1159 11.6478L14.1117 11.688L14.1069 11.7294L14.1009 11.7696L14.0937 11.8098L14.0859 11.8506L14.0769 11.8902L14.0661 11.9298L14.0553 11.9694L14.0427 12.0084L14.0288 12.0474L14.015 12.0852L13.9988 12.1236L13.9832 12.1614L13.9658 12.198L13.9472 12.2346L13.9274 12.2706L13.907 12.3066L13.886 12.3414L13.8638 12.3762L13.8404 12.4098L13.817 12.4427L13.7918 12.4757L13.766 12.5075L13.7395 12.5387L13.7119 12.5693L13.6837 12.5987L13.6549 12.6281L13.6249 12.6557L13.5949 12.6833L13.5637 12.7103L13.5319 12.7355L13.4995 12.7607L13.4658 12.7847L13.4316 12.8075L13.3974 12.8297L13.3626 12.8513L13.3272 12.8717L13.2906 12.8909L13.254 12.9095L13.2168 12.9269L13.1789 12.9431L13.1417 12.9587L13.1033 12.9731L13.0643 12.9863L13.0253 12.9989L12.9863 13.0103L12.9461 13.0205L12.9064 13.0295L12.8662 13.0379L12.826 13.0445L12.7852 13.0505L12.7444 13.0559L12.7036 13.0595L12.6628 13.0619L12.6219 13.0643H12.5805H0V14.9997H12.5805L12.6321 14.9991L12.6832 14.9979L12.7348 14.9949L12.7858 14.9907L12.8374 14.9865L12.8884 14.9805L12.9395 14.9727L12.9899 14.9649L13.0403 14.9559L13.0907 14.9451L13.1405 14.9338L13.1903 14.9218L13.2396 14.9086L13.2894 14.8936L13.338 14.8786L13.3866 14.8612L13.4352 14.8438L13.4833 14.8252L13.5307 14.806L13.5775 14.7856L13.6243 14.7634L13.6699 14.7406L13.7161 14.7172L13.7606 14.6926L13.8056 14.6674L13.8494 14.641L13.8926 14.6128L13.9358 14.5852L13.9778 14.5558L14.0192 14.5252L14.0607 14.4946L14.1009 14.4628L14.1405 14.4298L14.1795 14.3962L14.2173 14.3626L14.2545 14.3272L14.2917 14.2912L14.3272 14.2546L14.3626 14.2168L14.3968 14.179L14.4304 14.14L14.4634 14.1004L14.4946 14.0602L14.5258 14.0194L14.5558 13.9774L14.5853 13.9354L14.6135 13.8922L14.6405 13.849L14.6675 13.8046L14.6933 13.7602L14.7173 13.7152L14.7413 13.6697L14.7641 13.6235L14.7851 13.5773L14.8061 13.5299L14.8259 13.4825L14.8439 13.4351L14.8619 13.3865L14.8788 13.3379L14.8944 13.2887L14.9088 13.2395L14.922 13.1903L14.9346 13.1399L14.946 13.0901L14.9562 13.0403L14.9652 12.9893L14.9736 12.9389L14.9808 12.8879L14.9862 12.8369L14.9916 12.7859L14.9952 12.7343L14.9976 12.6833L15 12.6323V12.5807V12.5291L14.9976 12.4775Z" fill="#0DC09D"/>
        <path d="M0.00240086 2.5216L0.00480173 2.57319L0.00840302 2.62419L0.013805 2.67579L0.0198071 2.72678L0.0264095 2.77718L0.0348125 2.82817L0.0438158 2.87857L0.0540194 2.92897L0.0654236 2.97876L0.0780281 3.02856L0.0912328 3.07775L0.105638 3.12755L0.121844 3.17615L0.13805 3.22474L0.156056 3.27334L0.174063 3.32073L0.19387 3.36873L0.214877 3.41553L0.236485 3.46232L0.258693 3.50792L0.282702 3.55352L0.307311 3.59911L0.33252 3.64351L0.359529 3.68791L0.386539 3.7305L0.414749 3.7737L0.44416 3.81629L0.474171 3.85769L0.505382 3.89909L0.537193 3.93869L0.569605 3.97888L0.603217 4.01728L0.637429 4.05568L0.672842 4.09287L0.708855 4.12947L0.745468 4.16547L0.782682 4.20086L0.820495 4.23506L0.859509 4.26866L0.899724 4.30106L0.901525 4.30286L0.957945 4.26926L1.00776 4.24106L1.05938 4.21226L1.06658 4.20926L1.05278 4.18467L1.03477 4.14807L1.01737 4.11087L1.00116 4.07307L0.985555 4.03528L0.97115 3.99688L0.957345 3.95848L0.94534 3.91889L0.933936 3.87989L0.923733 3.84029L0.914129 3.8001L0.906326 3.7605L0.899124 3.7197L0.893121 3.67891L0.88832 3.63871L0.884718 3.59791L0.881717 3.55712L0.880517 3.51572L0.879917 3.47492L0.880517 3.43413L0.881717 3.39273L0.884718 3.35133L0.88832 3.31114L0.893121 3.27034L0.899124 3.23014L0.906326 3.18934L0.914129 3.14915L0.923733 3.10955L0.933936 3.06995L0.94534 3.03036L0.957345 2.99136L0.97115 2.95236L0.985555 2.91397L1.00116 2.87617L1.01737 2.83837L1.03477 2.80118L1.05278 2.76518L1.07259 2.72858L1.09299 2.69318L1.114 2.65779L1.13621 2.62359L1.15962 2.58999L1.18303 2.557L1.20884 2.524L1.23404 2.4922L1.26105 2.461L1.28806 2.43041L1.31627 2.40041L1.34508 2.37161L1.37509 2.34341L1.40571 2.31641L1.43632 2.28942L1.46813 2.26362L1.50114 2.23902L1.53415 2.21442L1.56836 2.19162L1.60258 2.16943L1.63799 2.14783L1.6728 2.12803L1.70942 2.10883L1.74603 2.09023L1.78324 2.07283L1.82106 2.05604L1.85827 2.04104L1.89728 2.02664L1.9357 2.01344L1.97471 2.00084L2.01433 1.98944L2.05394 1.97924L2.09415 1.97024L2.13377 1.96184L2.17458 1.95524L2.2154 1.94924L2.25561 1.94384L2.29643 1.94024L2.33724 1.93725L2.37806 1.93545H2.41947H15V0H2.41947H2.36785L2.31683 0.00179986L2.26522 0.00479962L2.2142 0.00899928L2.16258 0.0131989L2.11156 0.0191985L2.06114 0.0269978L2.01012 0.0341973L1.95971 0.0437965L1.90929 0.0539957L1.85947 0.0659947L1.80965 0.0779938L1.76043 0.0911927L1.71062 0.106192L1.662 0.12119L1.61338 0.137989L1.56536 0.155388L1.51675 0.174586L1.46993 0.193784L1.42311 0.214183L1.3763 0.236381L1.33008 0.258579L1.28446 0.282577L1.23945 0.307175L1.19503 0.332373L1.15061 0.358771L1.1074 0.386369L1.06418 0.414567L1.02217 0.443964L0.980753 0.473962L0.939338 0.50516L0.899724 0.536957L0.859509 0.569954L0.820495 0.602952L0.782682 0.637149L0.745468 0.672546L0.708855 0.708543L0.672842 0.74514L0.637429 0.782337L0.603217 0.820734L0.569605 0.859731L0.537193 0.899328L0.505382 0.939525L0.474171 0.980322L0.44416 1.02232L0.414749 1.06431L0.386539 1.10691L0.359529 1.15071L0.33252 1.1945L0.307311 1.2395L0.282702 1.2845L0.258693 1.32949L0.236485 1.37629L0.214877 1.42249L0.19387 1.46988L0.174063 1.51728L0.156056 1.56467L0.13805 1.61267L0.121844 1.66187L0.105638 1.71046L0.0912328 1.75966L0.0780281 1.80946L0.0654236 1.85925L0.0540194 1.90965L0.0438158 1.95944L0.0348125 2.00984L0.0264095 2.06084L0.0198071 2.11183L0.013805 2.16283L0.00840302 2.21382L0.00480173 2.26542L0.00240086 2.31641L0 2.36741V2.41901V2.4706L0.00240086 2.5216Z" fill="#0DC09D"/>
    </symbol>

    <symbol id="icon-aws" viewBox="0 0 16 9" fill="none">
        <path d="M12.3374 6.29156C12.8719 6.22648 14.0504 6.08639 14.2603 6.35664C14.47 6.62193 14.0255 7.73815 13.8257 8.23361C13.7658 8.38381 13.8957 8.44384 14.0305 8.32875C14.9095 7.58795 15.1392 6.04125 14.9595 5.81604C14.7796 5.59589 13.2364 5.40561 12.2975 6.06635C12.1526 6.17141 12.1776 6.3116 12.3374 6.29156Z" fill="#FF9900"/>
        <path d="M7.49299 8.99927C9.54567 8.99927 11.9329 8.3535 13.576 7.13728C13.8457 6.93707 13.6109 6.6318 13.3362 6.7569C11.4934 7.53769 9.49071 7.91817 7.66779 7.91817C4.9659 7.91817 2.3539 7.1724 0.236436 5.9411C0.051513 5.83097 -0.0882677 6.02116 0.0664931 6.16134C2.02433 7.93315 4.6163 8.99927 7.49299 8.99927Z" fill="#FF9900"/>
        <path d="M4.2318 3.2684C4.2318 3.45363 4.25174 3.60373 4.28666 3.71385C4.33105 3.83772 4.38451 3.95816 4.44658 4.07419C4.47148 4.11427 4.4815 4.15435 4.4815 4.18937C4.4815 4.23947 4.45154 4.28958 4.38656 4.33958L4.07198 4.54981C4.02703 4.57977 3.98199 4.59485 3.94211 4.59485C3.89211 4.59485 3.84221 4.56975 3.79231 4.5247C3.72498 4.45222 3.66475 4.37345 3.61245 4.28948C3.55661 4.19329 3.50495 4.09475 3.45759 3.99412C3.0681 4.45466 2.57862 4.68493 1.98933 4.68493C1.56979 4.68493 1.23527 4.56479 0.990525 4.3246C0.745782 4.08431 0.62088 3.76386 0.62088 3.36354C0.62088 2.93803 0.770681 2.59267 1.07534 2.33244C1.38001 2.07211 1.78457 1.94205 2.29906 1.94205C2.4688 1.94205 2.6436 1.95703 2.82842 1.98203C3.01314 2.00713 3.20293 2.04711 3.40273 2.09216V1.72676C3.40273 1.34639 3.32277 1.0811 3.1679 0.925933C3.00818 0.770767 2.73844 0.695766 2.35392 0.695766C2.17912 0.695766 1.99935 0.715705 1.81453 0.760747C1.63092 0.804608 1.45067 0.861501 1.27515 0.930994C1.21836 0.956466 1.15997 0.978206 1.10035 0.996076C1.06543 1.006 1.04042 1.01106 1.02038 1.01106C0.950544 1.01106 0.915523 0.961055 0.915523 0.855891V0.610642C0.915523 0.530579 0.925645 0.470457 0.950544 0.435537C0.975443 0.400414 1.02038 0.365393 1.09032 0.330271C1.26513 0.240188 1.47495 0.165186 1.71959 0.105063C1.96433 0.0400819 2.22416 0.00991926 2.49876 0.00991926C3.09311 0.00991926 3.52753 0.145145 3.80719 0.415395C4.08189 0.685644 4.22178 1.09618 4.22178 1.6467V3.2684H4.2318ZM2.20412 4.02925C2.3689 4.02925 2.53874 3.99918 2.7185 3.93916C2.89826 3.87904 3.05808 3.76892 3.19291 3.61881C3.27287 3.52367 3.33279 3.4186 3.36275 3.29846C3.39271 3.17831 3.41265 3.03317 3.41265 2.86302V2.6528C3.26122 2.61588 3.10784 2.58749 2.95322 2.56777C2.79753 2.54792 2.64074 2.53784 2.48378 2.53761C2.14916 2.53761 1.90441 2.60269 1.73963 2.73782C1.57485 2.87304 1.49489 3.06323 1.49489 3.31344C1.49489 3.54867 1.55481 3.72387 1.67971 3.84402C1.79955 3.96912 1.97435 4.02925 2.20402 4.02925H2.20412ZM6.21444 4.56975C6.12455 4.56975 6.06463 4.55477 6.02465 4.51974C5.98477 4.48968 5.94975 4.41954 5.91979 4.3245L4.74618 0.455476C4.71622 0.355272 4.70124 0.29029 4.70124 0.255269C4.70124 0.175207 4.74112 0.130165 4.82108 0.130165H5.31047C5.40541 0.130165 5.47039 0.145145 5.50531 0.180166C5.54529 0.210228 5.57515 0.280371 5.60521 0.375414L6.4443 3.68885L7.22337 0.375414C7.24827 0.275209 7.27823 0.210228 7.31821 0.180166C7.35819 0.150105 7.42803 0.130165 7.51801 0.130165H7.91751C8.01245 0.130165 8.07733 0.145145 8.11731 0.180166C8.1573 0.210228 8.19222 0.280371 8.21216 0.375414L9.00124 3.72894L9.86533 0.375414C9.89519 0.275209 9.93011 0.210228 9.96513 0.180166C10.0051 0.150105 10.07 0.130165 10.16 0.130165H10.6244C10.7043 0.130165 10.7493 0.170146 10.7493 0.255269C10.7493 0.28027 10.7443 0.30527 10.7392 0.335332C10.7314 0.378009 10.7197 0.419885 10.7043 0.460436L9.50075 4.32966C9.47069 4.42976 9.43577 4.49474 9.39579 4.5248C9.35591 4.55487 9.29093 4.57491 9.20601 4.57491H8.77654C8.6816 4.57491 8.61662 4.55983 8.57674 4.5248C8.53686 4.48978 8.50184 4.4247 8.4819 4.3246L7.70779 1.09628L6.93864 4.31964C6.91364 4.41974 6.88368 4.48482 6.8437 4.51985C6.80382 4.55487 6.73388 4.56985 6.644 4.56985L6.21444 4.56975ZM12.6321 4.70497C12.3724 4.70497 12.1127 4.67491 11.863 4.61489C11.6132 4.55476 11.4185 4.48968 11.2886 4.41458C11.2087 4.36954 11.1538 4.31944 11.1338 4.2745C11.1144 4.23029 11.1042 4.18259 11.1038 4.13431V3.87904C11.1038 3.77398 11.1438 3.72387 11.2187 3.72387C11.2487 3.72387 11.2786 3.72894 11.3086 3.73885C11.3385 3.74898 11.3835 3.76892 11.4335 3.78896C11.6099 3.86669 11.7941 3.92539 11.9829 3.96406C12.1826 4.00414 12.3774 4.02419 12.5771 4.02419C12.8918 4.02419 13.1366 3.96912 13.3063 3.859C13.4761 3.74887 13.566 3.58875 13.566 3.38348C13.566 3.2434 13.5211 3.12831 13.4312 3.03317C13.3413 2.93803 13.1715 2.853 12.9267 2.77294L12.2026 2.54763C11.8381 2.43255 11.5683 2.2624 11.4035 2.03709C11.2387 1.81684 11.1538 1.5716 11.1538 1.31137C11.1538 1.10114 11.1988 0.915913 11.2886 0.755787C11.3785 0.595662 11.4984 0.455476 11.6483 0.345352C11.7981 0.230269 11.9678 0.145145 12.1676 0.0851235C12.3674 0.0250006 12.5771 0 12.7969 0C12.9068 0 13.0217 0.00506084 13.1315 0.020041C13.2464 0.0350211 13.3512 0.055062 13.4561 0.075103C13.556 0.100104 13.6509 0.125104 13.7408 0.155064C13.8307 0.185227 13.9007 0.215187 13.9506 0.245249C14.0205 0.285331 14.0705 0.325311 14.1005 0.370353C14.1304 0.410435 14.1454 0.465497 14.1454 0.535539V0.770869C14.1454 0.876033 14.1054 0.931095 14.0305 0.931095C13.9905 0.931095 13.9257 0.911054 13.8407 0.870972C13.556 0.740908 13.2364 0.675826 12.8818 0.675826C12.5972 0.675826 12.3724 0.720867 12.2176 0.81591C12.0628 0.911054 11.9829 1.0562 11.9829 1.26147C11.9829 1.40155 12.0328 1.5216 12.1327 1.61674C12.2326 1.71188 12.4173 1.80703 12.682 1.89205L13.3912 2.11736C13.7509 2.23244 14.0105 2.39267 14.1653 2.59784C14.3202 2.803 14.3951 3.03823 14.3951 3.29856C14.3951 3.51375 14.3502 3.709 14.2652 3.87914C14.1754 4.04929 14.0555 4.19949 13.9007 4.31964C13.7458 4.44474 13.5611 4.53483 13.3463 4.59991C13.1216 4.66995 12.8868 4.70497 12.6321 4.70497Z" fill="#252F3E"/>
    </symbol>

    <symbol id="icon-vscode" viewBox="0 0 13 13" fill="none">
        <path d="M11.7853 2.04344L9.44287 0.915688C9.31059 0.851906 9.16174 0.830858 9.01695 0.855462C8.87217 0.880065 8.73863 0.949102 8.63484 1.053L0.966871 8.04375C0.873837 8.12817 0.818146 8.24609 0.812051 8.37157C0.805956 8.49705 0.849956 8.61981 0.934371 8.71285C0.944528 8.72381 0.954684 8.73438 0.965653 8.74413L1.59168 9.31288C1.67349 9.38733 1.77879 9.43078 1.88929 9.43567C1.99979 9.44057 2.10852 9.40661 2.19659 9.33969L11.4327 2.33594C11.5024 2.283 11.5856 2.25059 11.6728 2.24235C11.76 2.2341 11.8477 2.25036 11.9262 2.28929C12.0046 2.32822 12.0706 2.38827 12.1168 2.46269C12.163 2.5371 12.1875 2.62293 12.1875 2.7105V2.68328C12.1875 2.54959 12.1497 2.41861 12.0786 2.30541C12.0074 2.19222 11.9058 2.10141 11.7853 2.04344Z" fill="#0065A9"/>
        <path d="M11.7853 10.9566L9.44287 12.0847C9.31055 12.1483 9.16174 12.1693 9.017 12.1447C8.87226 12.1201 8.73873 12.0511 8.63484 11.9474L0.966871 4.95625C0.873837 4.87183 0.818146 4.75391 0.812051 4.62843C0.805956 4.50295 0.849956 4.38019 0.934371 4.28715C0.944528 4.27619 0.954684 4.26562 0.965653 4.25587L1.59168 3.68712C1.67357 3.61236 1.77911 3.56872 1.88989 3.56382C2.00066 3.55892 2.10964 3.59307 2.19781 3.66031L11.4327 10.6641C11.5024 10.717 11.5856 10.7494 11.6728 10.7577C11.76 10.7659 11.8477 10.7496 11.9262 10.7107C12.0046 10.6718 12.0706 10.6117 12.1168 10.5373C12.163 10.4629 12.1875 10.3771 12.1875 10.2895V10.3187C12.1871 10.4521 12.1491 10.5826 12.078 10.6954C12.0069 10.8082 11.9054 10.8987 11.7853 10.9566Z" fill="#007ACC"/>
        <path d="M9.44287 12.0847C9.31054 12.1483 9.16173 12.1693 9.01699 12.1447C8.87225 12.1201 8.73872 12.0511 8.63483 11.9474C8.69317 12.005 8.76721 12.044 8.84766 12.0597C8.92812 12.0754 9.01141 12.067 9.0871 12.0356C9.1628 12.0041 9.22753 11.951 9.27318 11.8829C9.31883 11.8149 9.34338 11.7348 9.34374 11.6529V1.34711C9.34381 1.26476 9.31943 1.18424 9.2737 1.11575C9.22797 1.04726 9.16294 0.993892 9.08685 0.962395C9.01076 0.930897 8.92703 0.922692 8.84628 0.938819C8.76552 0.954945 8.69137 0.994678 8.63321 1.05298C8.73702 0.949122 8.87053 0.880081 9.01529 0.855409C9.16004 0.830737 9.30889 0.851653 9.44124 0.915265L11.7833 2.04139C11.9041 2.09908 12.0062 2.18976 12.0777 2.30297C12.1492 2.41619 12.1873 2.54732 12.1875 2.68123V10.3187C12.1875 10.4525 12.1497 10.5836 12.0785 10.6969C12.0073 10.8102 11.9055 10.901 11.7849 10.959L9.44287 12.0847Z" fill="#1F9CF0"/>
    </symbol>

    <symbol id="icon-google-cloud" viewBox="0 0 15 15" fill="none">
        <path d="M9.64561 4.86851L10.7756 3.74506L10.851 3.27201C8.79172 1.41046 5.51831 1.62154 3.662 3.71244C3.14637 4.29318 2.76383 5.01719 2.55984 5.76483L2.96457 5.70813L5.22459 5.33762L5.39908 5.16021C6.40439 4.06256 8.10419 3.91489 9.26495 4.84882L9.64561 4.86851Z" fill="#EA4335"/>
        <path d="M12.3854 5.73185C12.1257 4.7809 11.5924 3.92603 10.851 3.27209L9.26496 4.84886C9.93467 5.39289 10.3162 6.21247 10.2998 7.07208V7.35198C11.0794 7.35198 11.7114 7.98027 11.7114 8.75527C11.7114 9.53032 11.0794 10.1429 10.2998 10.1429H7.47279L7.19522 10.4424V12.1256L7.47279 12.3897H10.2998C12.3275 12.4054 13.9841 10.7997 13.9999 8.78384C14.0095 7.56194 13.4035 6.41643 12.3854 5.73185Z" fill="#4285F4"/>
        <path d="M4.64968 12.3897H7.47276V10.1428H4.64968C4.44853 10.1428 4.25374 10.0998 4.07082 10.0167L3.67031 10.1389L2.53235 11.2624L2.43323 11.6447C3.0714 12.1238 3.85002 12.3932 4.64968 12.3897Z" fill="#34A853"/>
        <path d="M4.64966 5.1011C2.62192 5.11311 0.987981 6.75712 1.00007 8.77301C1.00682 9.89873 1.53566 10.9584 2.43322 11.6447L4.07081 10.0167C3.36033 9.69755 3.04462 8.8663 3.36561 8.16001C3.68655 7.45372 4.52271 7.13985 5.23309 7.45892C5.54616 7.59952 5.79686 7.84882 5.93829 8.16001L7.57588 6.53201C6.87911 5.62645 5.79646 5.09701 4.64966 5.1011Z" fill="#FBBC05"/>
    </symbol>

    <symbol id="icon-azure" viewBox="0 0 12 11" fill="none">    
        <path d="M2.98282 8.62854L6.99063 0.36247C7.01543 0.311155 7.02205 0.252907 7.00927 0.197344C6.9965 0.141781 6.96518 0.0922294 6.9205 0.0568756C6.87706 0.0201542 6.82206 0 6.7652 0C6.70834 0 6.65328 0.0201542 6.60989 0.0568756L3.10305 2.81223C3.07624 2.83236 3.05404 2.85798 3.03793 2.88738L0.0320821 8.39809C0.0110339 8.43647 0 8.47955 0 8.52334C0 8.56712 0.0110339 8.6102 0.0320821 8.64858C0.0545614 8.6855 0.0862144 8.71601 0.123963 8.73705C0.161712 8.75814 0.204271 8.76906 0.247501 8.76881H2.75237C2.80017 8.76987 2.84726 8.75719 2.8881 8.73234C2.92893 8.70749 2.9618 8.67147 2.98282 8.62854Z" fill="#0072C6"/>
        <path d="M11.9703 9.65557L7.61182 1.37447C7.59198 1.33206 7.55992 1.29654 7.51974 1.27244C7.47962 1.24835 7.43318 1.23678 7.38638 1.23921C7.34029 1.24004 7.29536 1.25358 7.25643 1.27832C7.21756 1.30308 7.18625 1.33808 7.16596 1.37948L5.31235 5.21192C5.29136 5.25526 5.28304 5.30365 5.28835 5.35155C5.29371 5.39939 5.31245 5.44478 5.34241 5.48245L7.78716 8.36806L2.92272 9.5203C2.86313 9.53563 2.81107 9.5719 2.7761 9.62255C2.74113 9.67315 2.72559 9.73467 2.73235 9.79584C2.73964 9.85741 2.76907 9.91422 2.81516 9.9557C2.86124 9.99718 2.92084 10.0205 2.98284 10.0213H11.7499C11.7931 10.0215 11.8357 10.0106 11.8734 9.98952C11.9112 9.96847 11.9428 9.93796 11.9653 9.90104C11.9871 9.86402 11.9991 9.82194 12 9.77895C12.0008 9.73597 11.9906 9.69349 11.9703 9.65557Z" fill="#0072C6"/>
    </symbol>

     <symbol id="icon-training" viewBox="0 0 15 15" fill="none">    
        <path d="M11.4559 10.5768C11.4559 10.5768 9.79323 12.1371 7.59469 12.1371C5.39615 12.1371 3.73459 10.5768 3.73459 10.5768C3.73459 10.5768 3.42538 9.09241 4.22425 6.52965C4.6457 5.17839 10.6427 5.04085 11.1126 6.22264C11.9114 8.22862 11.4559 10.5768 11.4559 10.5768Z" fill="#424242"/>
        <path d="M3.73457 10.5769L4.26165 10.9995C4.26165 10.9995 4.25725 10.1632 4.51584 9.38304C4.61267 9.09144 4.95819 8.9693 5.21787 9.13326L7.23045 10.3954C7.34078 10.4645 7.46813 10.5016 7.5983 10.5025C7.72847 10.5035 7.85635 10.4683 7.9677 10.4009C8.92943 9.81769 11.4383 8.29147 11.5527 8.19794C11.5527 8.19794 11.5527 8.00978 11.5054 7.7699L3.70596 7.7798L3.73457 10.5769Z" fill="#212121"/>
        <path d="M14.0693 6.24248L7.81916 9.96504C7.68271 10.0465 7.51215 10.0465 7.37461 9.96504L1.1267 6.24248C0.952843 6.13905 0.952843 5.88706 1.1267 5.78363L7.37681 2.06107C7.51326 1.97964 7.68381 1.97964 7.82136 2.06107L14.0715 5.78363C14.2442 5.88706 14.2442 6.13905 14.0693 6.24248Z" fill="#424242"/>
        <path d="M7.60238 9.69213C7.60128 9.69213 7.59908 9.69323 7.59798 9.69323C7.58037 9.69323 7.56276 9.68883 7.54736 9.67892L1.01556 5.91345C1.01556 5.91345 0.983645 5.97397 1.01556 6.08291C1.04857 6.19185 1.09918 6.22706 1.12669 6.24356L7.3768 9.96612C7.44502 10.0068 7.52205 10.0277 7.59908 10.0277H7.60348V9.69213H7.60238Z" fill="#9E9E9E"/>
        <path d="M7.59799 9.69213C7.59909 9.69213 7.60129 9.69323 7.6024 9.69323C7.62 9.69323 7.63761 9.68883 7.65301 9.67892L14.1848 5.91345C14.1848 5.91345 14.2167 5.97397 14.1848 6.08291C14.1518 6.19185 14.1012 6.22706 14.0737 6.24356L7.82357 9.96612C7.75535 10.0068 7.67832 10.0277 7.60129 10.0277H7.59689V9.69213H7.59799Z" fill="#616161"/>
        <path d="M4.45642 8.22638L4.49163 7.91717C4.49163 7.91717 7.18864 6.45038 7.45493 6.29633C7.72122 6.14227 8.00072 5.97062 8.12506 5.83307C8.34513 5.59099 8.18668 5.43914 8.18668 5.43914C8.18668 5.43914 8.01282 5.72083 7.59798 5.67131C7.3603 5.6427 7.0511 5.45014 6.99938 5.35991C6.94766 5.26968 3.95465 7.54965 3.95465 7.54965L3.93375 7.91607L4.45642 8.22638Z" fill="#424242"/>
        <path d="M8.1867 5.44022C7.89841 5.84295 7.40984 5.66689 7.40984 5.66689C7.40984 5.66689 5.87923 6.40084 5.82201 6.2897C5.76479 6.17856 7.08633 5.49854 7.08633 5.49854C7.08633 5.49854 7.01261 5.22784 7.02031 5.1123C7.02031 5.1123 4.6303 6.63302 3.7335 7.14469C3.26364 7.41318 3.16351 7.66627 3.16461 8.02279C3.16461 8.17904 3.16681 8.68631 3.16901 8.98891C3.16901 9.04503 3.1448 9.09785 3.10189 9.13306C3.03691 9.18631 2.98456 9.25331 2.9486 9.32923C2.91263 9.40515 2.89396 9.4881 2.89392 9.57211C2.89392 9.74047 2.96764 9.89122 3.08428 9.99575C3.147 10.0519 3.1338 10.1729 3.1393 10.251C3.1503 10.4007 3.1393 10.4689 3.07768 10.6076C3.01716 10.7429 2.96104 10.8816 2.92253 11.0246C2.89282 11.1346 2.87301 11.248 2.8532 11.3602C2.72226 12.1118 2.66284 12.915 2.31622 13.6061C2.3097 13.619 2.3058 13.6331 2.30476 13.6475C2.30372 13.6619 2.30555 13.6764 2.31016 13.6901C2.31477 13.7039 2.32205 13.7165 2.33159 13.7274C2.34113 13.7383 2.35274 13.7472 2.36574 13.7535C2.39187 13.7667 2.42217 13.769 2.45 13.7599C2.47783 13.7509 2.50095 13.7312 2.51429 13.7051C2.69475 13.3453 2.78828 12.9513 2.86531 12.5607C2.86091 12.9139 2.85871 13.2705 2.8466 13.6556C2.8444 13.7304 2.8389 13.8812 2.90712 13.9142C3.16351 14.0385 3.16351 13.6556 3.16351 13.6556C3.16351 13.6556 3.16681 14 3.51563 14C3.86445 14 3.88975 13.6556 3.88975 13.6556C3.88975 13.6556 3.91506 13.9714 4.09442 13.956C4.16705 13.9494 4.26278 13.9054 4.22867 13.5279C4.19456 13.1516 4.10983 11.8026 4.07352 11.3756C4.0229 10.7847 3.82923 10.4337 3.78962 10.2246C3.77532 10.1454 3.77421 10.0629 3.83694 10.0112C3.90077 9.95885 3.95245 9.89327 3.98838 9.81897C4.0243 9.74467 4.04362 9.66344 4.04498 9.58093C4.04634 9.49841 4.02972 9.41658 3.99626 9.34114C3.9628 9.2657 3.91332 9.19845 3.85124 9.14407C3.82917 9.12479 3.81191 9.10062 3.80083 9.0735C3.78975 9.04637 3.78516 9.01703 3.78742 8.98781C3.80833 8.70282 3.83143 8.28908 3.85014 8.19334C3.93157 7.7631 4.14394 7.68607 4.36181 7.55843C4.57969 7.42969 7.73555 5.997 7.91931 5.87486C8.25933 5.64709 8.1867 5.44022 8.1867 5.44022Z" fill="#E2A610"/>
        <path d="M8.18673 5.44022C7.91494 5.82425 7.35045 5.65259 7.35045 5.65259C7.35045 5.65259 5.90786 6.2919 6.0036 6.17636C6.09823 6.06082 7.08636 5.49854 7.08636 5.49854C7.08636 5.49854 7.01264 5.22784 7.02034 5.1123C7.02034 5.1123 4.58852 6.51748 3.6455 7.19311C3.40232 7.36807 3.10082 7.65416 3.3462 7.93916C3.45954 8.0701 3.67851 8.09761 3.81826 7.99418C3.90299 7.93256 3.96901 7.84233 4.04384 7.7708C4.13627 7.68057 4.2485 7.62335 4.35854 7.55843C4.57642 7.42969 7.73228 5.997 7.91604 5.87486C8.25936 5.64709 8.18673 5.44022 8.18673 5.44022Z" fill="#FFCA28"/>
        <path d="M3.42871 10.6251C3.28346 10.6251 3.18553 10.613 3.0964 10.5921C3.0805 10.5885 3.06643 10.5793 3.05674 10.5662C3.04705 10.553 3.04238 10.5369 3.04358 10.5206L3.07219 10.1003C3.07549 10.0574 3.11621 10.0276 3.15802 10.0397C3.25705 10.0684 3.45512 10.097 3.77863 10.0287C3.81824 10.0199 3.85786 10.0475 3.86226 10.0882L3.90627 10.5063C3.90957 10.5404 3.88757 10.5723 3.85455 10.58C3.6862 10.6185 3.56406 10.6251 3.42871 10.6251Z" fill="#9E740B"/>
        <path d="M11.4559 10.5766C11.4559 10.5766 11.6507 9.55988 11.5725 8.47822C11.5593 8.29555 11.4471 8.1382 11.3602 8.77752C11.3106 9.14394 11.2028 10.241 11.019 10.9265C11.2996 10.7241 11.4559 10.5766 11.4559 10.5766Z" fill="#616161"/>
        <path d="M7.78836 4.56556C7.86869 4.59087 7.94241 4.65249 7.96332 4.73502C7.99083 4.84506 7.9215 4.95509 7.84668 5.04092C7.70033 5.20928 7.49896 5.35673 7.27559 5.34903C7.20186 5.34683 7.12264 5.32262 7.07752 5.2643C7.04561 5.22358 7.03461 5.17077 7.0313 5.11905C7.0115 4.74162 7.43844 4.45553 7.78836 4.56556Z" fill="#616161"/>
    </symbol>

    <!-- end icons -->
  </defs>
</svg>